<?xml version="1.0" standalone="no"?>
<!DOCTYPE svg PUBLIC "-//W3C//DTD SVG 20010904//EN"
 "http://www.w3.org/TR/2001/REC-SVG-20010904/DTD/svg10.dtd">
<svg version="1.0" xmlns="http://www.w3.org/2000/svg"
 width="500.000000pt" height="500.000000pt" viewBox="0 0 500.000000 500.000000"
 preserveAspectRatio="xMidYMid meet">
<metadata>
Created by potrace 1.14, written by Peter Selinger 2001-2017
</metadata>
<g transform="translate(0.000000,500.000000) scale(0.100000,-0.100000)"
fill="#000000" stroke="none">
<path d="M2414 4255 c-27 -41 -12 -73 46 -97 40 -16 50 -25 50 -44 0 -34 -35
-50 -66 -29 -13 8 -24 22 -24 30 0 15 -12 20 -23 9 -8 -8 11 -45 32 -61 25
-19 57 -15 88 11 40 34 25 73 -40 104 -42 20 -48 26 -45 50 2 21 8 27 28 27
16 0 28 -8 35 -22 12 -28 25 -30 25 -4 0 51 -77 70 -106 26z"/>
<path d="M2240 4254 c0 -4 8 -13 18 -20 16 -12 16 -14 -3 -29 -19 -16 -19 -16
3 -5 27 13 27 53 0 58 -10 2 -18 0 -18 -4z"/>
<path d="M2780 4240 c0 -5 9 -10 19 -10 11 0 22 -4 25 -9 3 -5 -2 -50 -13
-100 -14 -70 -16 -91 -6 -91 14 0 16 6 36 113 12 64 14 67 41 67 45 0 32 17
-22 29 -63 14 -80 14 -80 1z"/>
<path d="M2095 4203 c-15 -92 -12 -90 -52 -39 -33 43 -53 57 -53 38 0 -5 20
-34 45 -66 24 -32 47 -73 51 -92 4 -20 12 -34 20 -34 11 0 12 7 7 28 -10 34
-9 71 1 145 6 39 5 57 -2 57 -6 0 -14 -17 -17 -37z"/>
<path d="M3016 4148 c-8 -24 -25 -68 -36 -98 -12 -34 -16 -58 -10 -64 8 -8 30
29 30 52 0 4 4 13 9 21 7 10 13 11 30 2 17 -10 21 -21 21 -62 0 -35 4 -51 15
-56 9 -3 19 -2 23 2 4 4 1 10 -5 12 -18 7 -17 93 0 93 24 0 49 37 45 66 -3 29
-38 59 -79 69 -24 6 -28 3 -43 -37z m82 -4 c25 -17 29 -46 7 -64 -11 -9 -22
-9 -49 0 -33 11 -34 12 -23 45 11 39 30 44 65 19z"/>
<path d="M1797 4133 c-2 -5 0 -56 6 -115 8 -82 14 -108 25 -108 11 0 13 8 9
29 -6 26 -3 31 31 44 35 14 38 14 59 -6 13 -11 26 -18 29 -14 7 7 0 17 -75
110 -51 62 -73 78 -84 60z m93 -113 c0 -3 -13 -11 -29 -17 -27 -10 -29 -9 -35
19 -3 17 -6 44 -6 61 l0 30 35 -44 c19 -24 35 -46 35 -49z"/>
<path d="M3235 4003 c-26 -49 -47 -92 -48 -96 -2 -9 77 -57 93 -57 21 0 8 17
-25 33 -39 19 -41 26 -19 68 15 29 16 30 39 15 27 -18 45 -21 45 -7 0 5 -13
14 -30 21 -35 14 -34 12 -15 50 18 35 18 35 50 14 13 -9 32 -14 42 -12 13 2 5
11 -29 31 -26 15 -49 27 -51 27 -3 0 -26 -39 -52 -87z"/>
<path d="M1615 4040 c-3 -5 3 -26 15 -46 12 -19 21 -36 19 -38 -27 -18 -60
-36 -67 -36 -5 0 -17 16 -28 35 -18 35 -25 40 -37 29 -6 -6 75 -147 99 -173
26 -28 26 -2 1 41 l-25 44 37 21 37 21 22 -39 c12 -21 30 -39 38 -39 15 0 15
2 2 23 -9 12 -34 54 -58 92 -51 84 -46 79 -55 65z"/>
<path d="M3469 3947 c-8 -12 -36 -52 -62 -88 l-47 -66 46 -33 c54 -38 74 -30
25 10 l-33 28 18 31 c22 37 24 37 57 11 15 -12 28 -16 32 -11 3 6 -6 18 -20
27 -29 19 -31 31 -7 62 l17 22 37 -25 c53 -36 56 -14 4 24 -25 17 -46 31 -48
31 -1 0 -10 -11 -19 -23z"/>
<path d="M1340 3858 c-26 -28 -25 -53 1 -79 17 -17 28 -20 58 -14 62 12 83 11
95 -7 23 -37 -43 -78 -79 -48 -8 7 -15 7 -19 1 -8 -12 32 -41 56 -41 50 0 89
78 58 115 -13 16 -71 19 -105 6 -42 -17 -75 30 -41 58 11 10 20 10 36 1 26
-14 37 -6 20 15 -18 22 -56 19 -80 -7z"/>
<path d="M2444 3511 c-50 -8 -175 -104 -200 -153 -22 -42 -12 -173 22 -277 13
-42 24 -85 24 -96 0 -17 2 -17 10 -5 9 13 10 13 10 0 0 -8 14 7 31 33 18 26
34 45 37 42 3 -3 0 -11 -6 -17 -7 -7 -12 -16 -12 -21 0 -5 18 7 39 26 35 31
101 75 76 49 -46 -45 -118 -101 -125 -97 -9 6 -25 -33 -17 -41 3 -3 29 18 58
46 66 63 202 132 309 156 61 14 104 16 233 11 87 -4 166 -11 175 -17 13 -9 10
-10 -18 -6 -94 13 -290 17 -347 7 -147 -27 -288 -95 -359 -173 l-36 -40 23
-24 c20 -21 31 -24 92 -24 83 0 86 -8 4 -12 -31 -1 -57 -5 -57 -8 1 -20 25
-34 71 -39 l54 -6 -50 -5 -50 -6 50 -9 c33 -5 78 -4 130 4 247 38 362 38 494
1 87 -25 205 -78 241 -108 15 -14 -7 -6 -60 21 -114 57 -202 85 -315 99 -83
11 -111 9 -252 -10 -87 -13 -183 -23 -213 -23 l-55 0 23 -19 c29 -24 85 -40
177 -50 63 -7 65 -7 20 -8 -47 -1 -94 6 -158 23 l-29 8 21 -41 c26 -51 26 -64
2 -35 l-19 23 -6 -35 c-10 -51 -63 -148 -145 -263 -138 -195 -181 -321 -183
-531 0 -99 -2 -109 -10 -71 -13 61 -3 199 21 291 26 100 71 189 166 324 85
121 130 206 140 266 6 34 2 47 -26 90 l-32 51 -17 -45 c-9 -24 -25 -55 -34
-68 -9 -13 -16 -28 -16 -33 0 -18 21 10 46 60 13 27 24 43 24 36 0 -19 -46
-106 -64 -122 -14 -11 -16 -10 -10 6 4 11 -11 1 -36 -23 -58 -59 -61 -54 -6 9
52 59 86 125 92 177 4 32 3 34 -8 17 -52 -75 -69 -96 -76 -93 -9 2 -202 -173
-306 -278 -37 -38 -63 -60 -57 -48 6 11 57 65 113 119 106 100 109 105 23 39
l-50 -38 40 37 c123 113 174 155 177 145 4 -11 73 74 97 119 7 12 16 20 22 17
14 -10 11 13 -7 41 -10 15 -23 23 -33 20 -9 -3 -38 2 -66 10 -36 10 -40 13
-15 10 19 -3 46 -8 60 -11 22 -4 21 -3 -5 9 -16 9 -26 15 -21 16 5 0 -7 16
-27 35 -45 44 -64 79 -78 147 -31 147 -117 210 -289 211 -89 0 -187 -26 -291
-78 -66 -34 -127 -100 -145 -160 -19 -59 -38 -467 -24 -514 4 -17 34 -72 65
-123 31 -51 58 -103 61 -115 9 -36 21 -27 34 26 16 67 101 208 157 260 48 44
190 141 249 169 40 18 84 9 84 -17 0 -32 -58 -80 -144 -122 -106 -51 -171
-101 -223 -174 -50 -71 -101 -186 -109 -249 -9 -65 28 -135 133 -248 47 -51
99 -118 117 -148 l31 -55 6 76 c14 164 56 293 135 415 21 32 57 95 79 139 30
60 45 80 60 80 15 0 21 -8 23 -32 4 -35 -17 -80 -85 -186 -91 -141 -153 -294
-153 -375 0 -56 23 -122 56 -160 29 -34 48 -45 117 -66 45 -14 102 -39 127
-56 61 -41 73 -40 63 8 -18 83 -5 172 72 509 23 102 57 178 81 181 39 6 36
-34 -11 -157 -81 -213 -101 -353 -71 -495 22 -108 50 -136 151 -151 27 -4 66
-14 88 -22 21 -9 41 -13 44 -9 3 3 1 30 -5 58 -6 29 -25 118 -42 198 -35 159
-35 218 -2 306 21 58 49 66 71 20 12 -26 12 -41 0 -110 -23 -135 -18 -222 19
-299 22 -47 42 -74 73 -96 51 -38 87 -39 220 -11 52 11 113 20 137 20 39 0 42
2 42 28 0 42 41 119 110 207 131 167 133 235 9 350 -45 41 -101 75 -237 143
-169 85 -177 91 -180 120 -5 47 28 59 119 44 135 -23 239 -95 317 -217 46 -72
90 -125 104 -125 4 0 8 11 8 25 0 13 5 56 12 95 15 89 1 171 -38 211 -39 41
-172 97 -464 196 -88 30 -131 63 -110 87 16 20 67 20 137 0 75 -22 406 -189
449 -226 19 -17 37 -29 39 -26 3 3 6 56 6 119 2 125 -15 188 -68 258 -84 109
-268 145 -500 97 -86 -18 -244 -31 -277 -22 -19 5 -26 13 -26 32 0 19 8 28 37
41 44 18 91 13 194 -18 59 -18 76 -20 114 -10 64 16 219 14 293 -5 35 -9 66
-13 70 -9 13 12 -31 111 -86 195 -67 101 -205 247 -284 301 -31 21 -76 43
-100 48 -48 12 -319 12 -384 2z m-15 -46 c-35 -19 -96 -103 -120 -163 -10 -26
-18 -40 -18 -32 -2 51 111 211 148 210 10 -1 7 -6 -10 -15z m241 -20 c0 -2
-20 -13 -45 -24 -79 -35 -167 -104 -228 -181 -28 -34 -28 -34 -14 -5 30 61
153 161 242 198 47 19 45 18 45 12z m143 -15 c-82 -12 -184 -46 -237 -80 -107
-68 -201 -179 -227 -267 -7 -24 -16 -43 -20 -43 -10 0 5 52 32 108 28 58 127
158 204 207 74 48 184 84 250 83 l50 0 -52 -8z m115 -91 c15 -1 -9 -5 -53 -9
-44 -4 -91 -10 -105 -15 -14 -4 -22 -4 -17 1 10 11 119 33 135 28 8 -2 26 -5
40 -5z m-150 -44 c2 -2 -14 -6 -35 -10 -64 -12 -199 -92 -275 -164 -21 -19
-38 -30 -38 -24 0 32 248 193 297 193 15 0 16 2 3 10 -11 8 -7 9 15 4 17 -4
31 -8 33 -9z m238 4 c32 -6 64 -15 69 -21 7 -8 4 -9 -8 -4 -23 8 -135 24 -197
29 -38 3 -36 4 16 5 33 1 87 -3 120 -9z m-43 -36 c3 -5 -41 -9 -97 -9 -84 -1
-115 -6 -186 -31 -47 -16 -94 -33 -105 -36 -11 -4 8 6 42 23 33 17 92 37 130
45 75 14 209 19 216 8z m-638 -64 c-14 -30 -25 -60 -25 -66 0 -7 -4 -13 -10
-13 -11 0 0 32 32 97 31 61 33 46 3 -18z m255 57 c0 -3 -86 -71 -135 -106 -19
-13 -19 -13 -5 5 14 17 127 105 136 105 2 0 4 -2 4 -4z m-660 -68 c12 -8 11
-8 -3 -4 -10 3 -60 7 -110 7 -62 1 -82 4 -62 9 37 9 155 1 175 -12z m-22 -23
c35 -8 87 -25 115 -37 53 -22 147 -86 147 -100 0 -4 -24 10 -52 32 -106 80
-272 123 -386 100 -31 -7 -84 -23 -116 -36 -76 -31 -84 -30 -22 2 54 28 149
52 211 53 22 0 68 -6 103 -14z m140 -14 c32 -16 65 -37 73 -47 10 -14 6 -13
-18 4 -17 12 -55 33 -85 47 -29 14 -47 25 -40 25 7 0 39 -13 70 -29z m280 -41
c-21 -62 -33 -81 -22 -32 9 36 32 92 38 92 3 0 -4 -27 -16 -60z m662 25 c102
-15 229 -50 245 -67 7 -8 4 -9 -10 -3 -108 41 -228 65 -338 66 -64 1 -83 4
-62 9 45 12 62 11 165 -5z m-418 -66 c-69 -31 -126 -68 -118 -76 3 -3 19 5 36
17 16 12 35 20 40 18 6 -2 -13 -16 -41 -32 -29 -16 -49 -24 -45 -17 11 16 -5
13 -26 -6 -10 -9 -18 -12 -18 -7 1 23 191 136 225 133 6 0 -18 -14 -53 -30z
m533 16 c52 -17 26 -17 -50 0 -48 11 -53 13 -25 13 19 0 53 -5 75 -13z m-1441
-23 c-44 -15 -100 -40 -125 -57 -66 -45 -73 -49 -65 -36 19 30 151 99 221 114
55 12 42 3 -31 -21z m354 -41 c9 -5 -29 -10 -95 -13 -123 -6 -226 -36 -303
-89 -35 -25 -41 -27 -25 -9 58 67 366 148 423 111z m92 -36 c52 -8 113 -21
135 -29 l40 -16 -40 7 c-22 3 -51 10 -65 16 -14 5 -80 12 -148 15 -96 4 -138
1 -195 -13 -140 -34 -239 -93 -288 -171 -12 -19 -24 -33 -27 -30 -3 3 8 24 23
46 57 82 179 147 317 170 40 6 80 13 88 15 33 6 69 4 160 -10z m-51 -65 c-36
-5 -82 -13 -104 -19 -21 -5 -34 -6 -29 -2 14 14 93 29 149 29 47 -1 46 -1 -16
-8z m1052 -16 c39 -9 68 -18 65 -21 -2 -3 -36 2 -75 11 -92 21 -149 20 -273
-4 -57 -11 -112 -19 -123 -19 -11 1 0 5 25 11 200 42 274 46 381 22z m-848
-13 c10 -4 -40 -5 -110 -3 -94 3 -146 0 -197 -12 -38 -9 -71 -14 -73 -12 -5 5
126 34 177 39 44 4 179 -4 203 -12z m72 -51 c-21 -40 -119 -136 -262 -256 -61
-51 -131 -116 -155 -144 -73 -84 -138 -230 -138 -314 0 -19 -4 -26 -9 -20 -24
23 36 201 99 294 43 63 88 107 250 241 121 101 175 155 205 207 24 40 32 34
10 -8z m695 8 c19 -6 15 -7 -15 -3 -22 3 -61 5 -87 5 -27 0 -48 5 -48 10 0 12
106 3 150 -12z m-503 1 c-31 -6 -54 -6 -65 0 -12 8 0 10 48 10 l65 -1 -48 -9z
m688 -36 c33 -13 68 -27 78 -30 9 -3 17 -9 17 -14 0 -13 -7 -11 -36 7 -14 9
-62 30 -107 46 -45 15 -66 26 -47 22 19 -3 62 -17 95 -31z m-336 -7 c-2 -2
-40 -6 -84 -8 -45 -3 -67 -2 -50 2 30 8 142 13 134 6z m-1027 -27 c-108 -48
-198 -130 -259 -237 -38 -67 -44 -62 -9 6 45 88 144 183 245 233 20 10 43 18
51 18 8 0 -4 -9 -28 -20z m828 1 c-60 -13 -135 -22 -128 -15 7 8 97 22 138 23
18 0 15 -2 -10 -8z m-955 -8 c-6 -4 -24 -18 -40 -32 -29 -24 -29 -23 2 8 18
17 36 32 40 32 4 0 3 -3 -2 -8z m803 1 c-10 -2 -26 -2 -35 0 -10 3 -2 5 17 5
19 0 27 -2 18 -5z m682 -28 c25 -13 41 -24 35 -24 -17 0 -111 47 -95 48 8 0
35 -11 60 -24z m-867 -36 c-10 -16 -29 -40 -43 -52 -22 -20 -22 -19 5 18 41
57 47 65 52 65 2 0 -4 -14 -14 -31z m113 -61 c-6 -34 -64 -143 -72 -136 -2 3
12 35 31 72 19 37 35 77 35 88 0 12 3 19 6 15 4 -3 4 -21 0 -39z m-411 -28
c-10 -16 -128 -104 -124 -92 3 9 118 101 127 102 2 0 0 -4 -3 -10z m455 -37
c-22 -68 -57 -126 -126 -213 -58 -74 -154 -246 -154 -278 0 -6 -5 -14 -10 -17
-17 -11 30 106 71 175 21 36 54 85 74 110 69 88 115 164 132 216 9 30 18 52
21 50 2 -3 -2 -22 -8 -43z m145 -48 c26 -13 26 -15 5 -9 -14 4 -31 9 -38 12
-9 3 -10 -1 -3 -19 6 -13 23 -58 39 -99 19 -48 44 -89 68 -114 31 -32 34 -36
12 -23 -31 19 -36 12 -13 -20 22 -31 90 -59 205 -83 58 -13 126 -31 153 -40
26 -10 55 -16 65 -14 9 3 31 -7 47 -22 l30 -26 -38 21 c-55 30 -55 26 0 -18
82 -66 102 -97 23 -36 -93 71 -136 90 -275 121 -60 13 -131 35 -157 48 l-48
23 0 -25 c0 -31 -11 -22 -26 21 l-11 32 -12 -44 c-7 -23 -14 -41 -17 -38 -3 2
1 24 7 49 8 27 9 59 4 83 l-8 40 -12 -40 c-12 -39 -12 -39 -11 32 1 84 -18
121 -29 57 -26 -148 -70 -293 -96 -319 -6 -5 -1 15 11 45 41 102 81 277 79
339 -1 14 -9 -18 -20 -72 -10 -53 -23 -105 -29 -115 -10 -15 -10 -15 -6 3 14
51 36 183 36 212 0 35 -18 83 -32 83 -4 0 -8 -7 -8 -15 0 -27 -39 -129 -56
-145 -9 -9 -6 5 10 40 14 30 28 75 31 100 11 77 13 78 53 33 20 -23 51 -49 67
-58z m203 45 c68 -5 126 -11 129 -14 8 -8 2 -7 -143 4 -66 5 -131 14 -145 20
-22 10 -22 10 6 4 17 -3 85 -10 153 -14z m-33 -30 c151 0 323 -43 434 -106 57
-33 134 -94 127 -102 -3 -2 -24 12 -47 33 -48 43 -178 107 -265 130 -32 9
-126 22 -209 30 -139 14 -209 27 -228 45 -4 4 25 -1 65 -11 40 -10 96 -19 123
-19z m-952 -42 c-36 -35 -76 -82 -90 -106 -14 -24 -28 -40 -31 -37 -9 9 69
114 121 160 74 68 75 54 0 -17z m618 -30 c-17 -35 -49 -83 -71 -107 -53 -58
-51 -44 3 22 23 28 54 78 67 109 14 31 26 53 28 48 2 -5 -10 -38 -27 -72z m59
1 c-11 -35 -27 -75 -36 -89 -10 -16 -13 -18 -8 -5 13 37 47 140 51 154 2 8 6
12 8 9 3 -3 -4 -34 -15 -69z m279 25 c8 -7 -94 -2 -119 6 -15 5 4 6 45 3 39
-3 72 -7 74 -9z m-799 3 c0 -2 -19 -21 -42 -42 l-41 -40 34 42 c29 36 49 52
49 40z m-195 -97 c-30 -43 -59 -97 -66 -120 -7 -22 -16 -40 -21 -40 -4 0 -1
17 8 38 9 20 18 44 22 52 12 33 97 150 108 150 2 0 -21 -36 -51 -80z m1325 49
c47 -18 85 -39 69 -39 -10 0 -143 59 -134 60 6 0 35 -9 65 -21z m226 -165 c60
-73 34 -56 -46 30 -58 62 -65 73 -32 47 23 -18 58 -53 78 -77z m-1130 9 c-25
-38 -57 -99 -72 -138 -15 -38 -31 -74 -36 -80 -12 -13 34 110 60 161 22 43 79
124 87 124 3 0 -15 -30 -39 -67z m622 -18 c46 -15 81 -29 79 -31 -14 -14 -235
74 -259 103 -7 9 12 2 42 -14 30 -17 92 -43 138 -58z m42 13 c110 -38 200 -80
200 -94 0 -2 -27 9 -60 26 -33 17 -99 43 -148 59 -82 27 -181 68 -137 57 11
-3 76 -25 145 -48z m-305 -25 c-4 -27 -27 -99 -51 -161 -61 -155 -77 -229 -71
-327 3 -44 8 -89 12 -100 7 -16 6 -18 -5 -8 -19 18 -26 178 -11 253 7 32 32
110 56 171 24 62 50 137 56 166 15 66 24 69 14 6z m-280 -43 c-14 -29 -29 -50
-31 -47 -3 3 7 28 21 57 14 29 29 50 31 47 3 -3 -7 -28 -21 -57z m330 20 c-4
-17 -9 -29 -12 -26 -3 2 -2 19 2 36 4 17 9 29 12 26 3 -2 2 -19 -2 -36z m303
-49 c91 -18 180 -50 144 -51 -7 0 -22 5 -32 10 -11 6 -62 19 -114 30 -90 18
-166 43 -166 54 0 3 15 -1 33 -9 18 -8 79 -23 135 -34z m-381 -113 c-25 -62
-48 -128 -52 -146 -4 -18 -9 -31 -12 -29 -2 3 1 25 7 48 16 59 92 250 98 245
2 -3 -16 -56 -41 -118z m185 38 c25 -24 70 -55 99 -69 30 -15 48 -26 41 -27
-19 0 -85 35 -121 65 -19 17 -31 22 -31 13 0 -31 142 -284 209 -373 54 -72 59
-85 17 -45 -20 19 -55 63 -77 97 -23 35 -44 63 -46 63 -3 0 -3 -25 -1 -55 3
-30 2 -52 -1 -49 -3 3 -9 38 -13 77 l-6 72 2 -85 c2 -68 8 -96 29 -140 28 -57
30 -76 4 -37 -30 47 -47 118 -47 201 0 77 -3 89 -32 140 -38 67 -41 63 -59
-71 -6 -49 -14 -90 -16 -93 -8 -7 5 112 19 182 10 48 9 66 -5 111 -17 54 -20
67 -14 67 2 0 24 -20 49 -44z m-643 -170 c-7 -47 -14 -84 -17 -81 -3 3 0 43 8
91 7 47 14 83 17 81 2 -3 -1 -44 -8 -91z m360 48 c-6 -16 -17 -58 -24 -94 -9
-43 -13 -54 -14 -34 -1 33 37 169 45 161 2 -2 0 -17 -7 -33z m354 11 c12 -8
67 -30 122 -50 110 -40 169 -71 200 -105 11 -13 -6 -5 -38 18 -34 24 -98 54
-150 72 -79 26 -187 79 -164 80 4 0 18 -7 30 -15z m202 -20 c17 -8 23 -13 15
-13 -8 0 -33 8 -55 19 -43 20 -10 15 40 -6z m-27 -19 c87 -29 161 -80 222
-151 14 -17 0 -7 -30 21 -70 64 -133 101 -223 130 -40 12 -65 23 -55 23 9 1
47 -10 86 -23z m-250 -58 c-5 -29 -12 -55 -15 -58 -6 -6 7 91 14 103 10 16 10
4 1 -45z m71 -247 c7 -12 11 -25 8 -27 -11 -11 -40 87 -43 146 l-4 65 14 -80
c7 -44 18 -91 25 -104z m203 101 c26 -20 46 -37 44 -40 -2 -2 -24 12 -49 30
-24 18 -53 38 -63 45 -18 12 -18 12 1 6 11 -3 41 -22 67 -41z m53 -9 c61 -59
78 -86 20 -33 -33 30 -71 63 -85 73 l-25 17 30 -14 c17 -8 44 -28 60 -43z"/>
<path d="M2350 2811 c-7 -17 -18 -36 -26 -42 -8 -6 -14 -16 -14 -22 0 -11 31
28 49 61 7 13 11 26 8 28 -2 3 -10 -9 -17 -25z"/>
<path d="M2200 2660 c-25 -22 -40 -40 -35 -40 6 0 29 18 50 40 50 51 43 51
-15 0z"/>
<path d="M670 2150 l0 -60 33 1 c30 2 30 2 5 6 -36 6 -40 49 -5 56 l22 4 -22
2 c-35 2 -31 39 5 44 25 4 25 4 -5 6 l-33 1 0 -60z"/>
<path d="M797 2204 c-16 -16 -5 -44 23 -59 33 -17 38 -32 14 -42 -10 -4 -22 1
-30 12 -8 10 -17 16 -20 12 -13 -13 20 -38 45 -35 40 5 41 43 2 63 -17 8 -31
22 -31 30 0 17 36 21 43 5 3 -6 4 -5 3 2 -3 14 -38 23 -49 12z"/>
<path d="M922 2203 c13 -3 18 -18 21 -61 l3 -57 2 57 c2 44 6 58 20 61 9 3 -1
5 -23 5 -22 0 -32 -2 -23 -5z"/>
<path d="M3967 2204 c-4 -4 -7 -14 -7 -23 1 -14 2 -13 11 2 5 9 14 17 19 17
17 0 11 -36 -9 -54 -10 -10 -21 -26 -24 -37 -4 -16 0 -19 31 -18 31 2 32 3 10
6 -34 5 -34 8 -3 45 14 17 25 38 23 47 -3 17 -39 27 -51 15z"/>
<path d="M4090 2191 c-15 -28 -12 -77 5 -91 38 -31 77 26 56 83 -12 32 -45 36
-61 8z m48 -35 c4 -48 -11 -67 -34 -44 -23 22 -11 91 14 86 12 -2 18 -15 20
-42z"/>
<path d="M4227 2204 c-14 -14 -7 -26 8 -14 12 10 19 10 27 2 9 -9 5 -19 -15
-40 -38 -39 -36 -62 6 -61 30 2 30 2 5 6 -35 5 -35 13 -3 43 30 28 30 64 0 68
-12 2 -24 0 -28 -4z"/>
<path d="M4357 2175 c-22 -46 -21 -55 3 -55 12 0 20 -7 21 -17 0 -17 1 -17 7
-1 9 22 3 108 -7 108 -4 0 -15 -16 -24 -35z m23 -15 c0 -19 -5 -30 -14 -30
-12 0 -12 5 -3 30 6 17 13 30 14 30 2 0 3 -13 3 -30z"/>
<path d="M1493 1247 c-28 -26 -36 -42 -36 -67 0 -37 35 -74 64 -67 12 3 16 0
12 -9 -9 -24 11 -14 36 17 l24 31 -31 31 c-17 17 -35 27 -39 23 -4 -4 4 -18
20 -30 21 -17 24 -25 15 -34 -25 -25 -88 -4 -88 30 0 20 41 77 60 83 33 10 60
-4 60 -31 0 -13 5 -24 10 -24 17 0 11 39 -10 60 -29 29 -55 25 -97 -13z"/>
<path d="M3365 1223 c-11 -8 -26 -18 -34 -22 -10 -6 -2 -23 34 -72 26 -35 48
-66 50 -68 8 -7 75 41 69 51 -4 5 -12 4 -22 -5 -32 -27 -40 -27 -56 -1 -16 24
-16 26 6 45 20 18 21 20 3 14 -34 -12 -47 -11 -58 7 -9 13 -6 21 14 36 28 24
23 37 -6 15z"/>
<path d="M1667 1094 c-56 -55 -69 -78 -29 -53 28 17 73 -11 65 -41 -3 -11 -1
-20 5 -20 8 0 46 135 44 157 -3 23 -33 7 -85 -43z m60 -9 c-11 -49 -13 -51
-40 -30 -18 13 -17 15 15 44 18 17 34 31 34 31 1 0 -3 -20 -9 -45z"/>
<path d="M3206 1125 c-19 -19 -21 -61 -3 -72 6 -4 32 -8 57 -8 41 0 45 -2 45
-25 0 -18 -6 -26 -23 -28 -13 -2 -30 2 -38 8 -11 10 -14 9 -14 -3 0 -30 58
-37 83 -9 40 44 10 84 -59 79 -30 -2 -39 2 -42 17 -6 27 12 40 37 27 17 -10
21 -9 21 4 0 8 -4 15 -9 15 -5 0 -16 3 -24 6 -8 3 -22 -2 -31 -11z"/>
<path d="M1821 1010 c-34 -77 -35 -80 -22 -80 5 0 14 14 21 30 21 51 53 27 43
-33 -5 -34 -4 -37 18 -37 15 0 20 3 12 8 -15 10 -12 72 3 72 21 0 46 38 39 59
-6 20 -51 51 -73 51 -5 0 -23 -32 -41 -70z m83 34 c18 -18 18 -17 10 -38 -7
-18 -27 -20 -54 -6 -17 9 -18 14 -8 35 13 29 30 32 52 9z"/>
<path d="M3090 1065 c0 -2 12 -34 27 -71 27 -65 27 -66 8 -80 -29 -21 -37 -14
-70 54 -16 34 -33 62 -38 62 -10 0 -1 -30 27 -90 18 -38 26 -45 53 -48 25 -2
35 2 48 21 15 23 14 29 -11 91 -14 36 -30 66 -35 66 -5 0 -9 -2 -9 -5z"/>
<path d="M2001 942 c-11 -39 -21 -75 -21 -80 0 -13 25 -22 64 -22 43 0 67 28
73 82 6 50 -13 74 -64 84 -30 6 -31 6 -52 -64z m81 31 c42 -38 -3 -133 -55
-117 -12 3 -23 8 -25 9 -2 1 5 30 15 64 19 64 33 74 65 44z"/>
<path d="M2845 970 c-25 -27 -16 -107 15 -132 33 -27 76 -23 96 7 20 31 14 97
-12 126 -23 25 -76 25 -99 -1z m80 -15 c25 -24 34 -77 17 -101 -30 -45 -92 -1
-92 65 0 28 5 43 18 50 25 15 30 14 57 -14z"/>
<path d="M2205 956 c-9 -28 -25 -149 -21 -153 2 -3 24 -6 48 -8 l43 -4 -37 11
c-55 17 -50 62 7 70 l30 5 -33 8 c-23 5 -31 12 -28 22 4 8 6 21 6 28 0 10 10
12 37 8 24 -4 34 -3 30 4 -9 15 -78 22 -82 9z"/>
<path d="M2730 955 c-1 -5 -1 -24 0 -41 1 -28 -2 -32 -29 -36 -38 -5 -41 -3
-41 34 0 15 -5 28 -11 28 -10 0 -7 -56 7 -132 9 -44 25 -33 18 12 l-7 40 37 0
c35 0 36 -1 36 -35 0 -19 5 -35 11 -35 7 0 8 21 3 68 -6 63 -21 119 -24 97z"/>
<path d="M2357 863 c-6 -100 9 -119 19 -22 l7 74 21 -70 c14 -44 27 -71 37
-73 13 -2 17 12 22 80 3 46 4 85 1 87 -9 10 -15 -10 -21 -74 l-6 -67 -21 68
c-31 99 -52 98 -59 -3z"/>
</g>
</svg>
